0
SECTION
2
HEADER
9
$INSUNITS
70
4
9
$ACADVER
1
AC1014
9
$HANDSEED
5
FFFF
0
ENDSEC
0
SECTION
2
TABLES
0
TABLE
2
VPORT
5
8
100
AcDbSymbolTable
0
ENDTAB
0
TABLE
2
LTYPE
5
5
100
AcDbSymbolTable
0
LTYPE
5
14
100
AcDbSymbolTableRecord
100
AcDbLinetypeTableRecord
2
BYBLOCK
70
0
0
LTYPE
5
15
100
AcDbSymbolTableRecord
100
AcDbLinetypeTableRecord
2
BYLAYER
70
0
0
ENDTAB
0
TABLE
2
LAYER
5
2
100
AcDbSymbolTable
70
2
0
LAYER
5
50
100
AcDbSymbolTableRecord
100
AcDbLayerTableRecord
2
0
70
0
6
CONTINUOUS
0
ENDTAB
0
TABLE
2
STYLE
5
3
100
AcDbSymbolTable
70
1
0
STYLE
5
11
100
AcDbSymbolTableRecord
100
AcDbTextStyleTableRecord
2
STANDARD
70
0
0
ENDTAB
0
TABLE
2
VIEW
5
6
100
AcDbSymbolTable
70
0
0
ENDTAB
0
TABLE
2
UCS
5
7
100
AcDbSymbolTable
70
0
0
ENDTAB
0
TABLE
2
APPID
5
9
100
AcDbSymbolTable
70
2
0
APPID
5
12
100
AcDbSymbolTableRecord
100
AcDbRegAppTableRecord
2
ACAD
70
0
0
ENDTAB
0
TABLE
2
DIMSTYLE
5
A
100
AcDbSymbolTable
70
1
0
ENDTAB
0
TABLE
2
BLOCK_RECORD
5
1
100
AcDbSymbolTable
70
1
0
BLOCK_RECORD
5
1F
100
AcDbSymbolTableRecord
100
AcDbBlockTableRecord
2
*MODEL_SPACE
0
BLOCK_RECORD
5
1B
100
AcDbSymbolTableRecord
100
AcDbBlockTableRecord
2
*PAPER_SPACE
0
ENDTAB
0
ENDSEC
0
SECTION
2
BLOCKS
0
BLOCK
5
20
100
AcDbEntity
100
AcDbBlockBegin
2
*MODEL_SPACE
0
ENDBLK
5
21
100
AcDbEntity
100
AcDbBlockEnd
0
BLOCK
5
1C
100
AcDbEntity
100
AcDbBlockBegin
2
*PAPER_SPACE
0
ENDBLK
5
1D
100
AcDbEntity
100
AcDbBlockEnd
0
ENDSEC
0
SECTION
2
ENTITIES
0
LWPOLYLINE
5
100
100
AcDbEntity
8
0
100
AcDbPolyline
90
48
70
1
43
0.0
10
150.00000223517418
20
70.000001043081284
10
150.00000223517418
20
75.000001162290573
10
152.50000227242708
20
75.000001162290573
10
152.50000227242708
20
78.000001206994057
10
157.50000234693289
20
78.000001206994057
10
157.50000234693289
20
75.000001162290573
10
160.00000238418335
20
75.000001162290587
10
160.00000238418505
20
-37.000000596046391
10
157.50000234693286
20
-37.000000596046441
10
157.50000234693289
20
-40.000000640749903
10
152.50000227242711
20
-40.000000640749931
10
152.50000227242708
20
-37.000000596046434
10
150.00000223517429
20
-37.000000596046448
10
150.00000223517424
20
-32.000000476837144
10
147.00000219047078
20
-32.000000476837158
10
147.00000219047072
20
-22.00000032782556
10
150.00000223517426
20
-22.000000327825546
10
150.00000223517424
20
-17.000000253319769
10
155.00000230968001
20
-17.00000025331974
10
155.00000230967999
20
-14.000000208616239
10
150.00000223517424
20
-14.000000208616257
10
150.00000223517421
20
-9.0000001341104401
10
147.00000219047072
20
-9.0000001341104507
10
147.0000021904707
20
1.0000000149011528
10
150.00000223517421
20
1.0000000149011612
10
150.00000223517418
20
6.0000000894069387
10
155.00000230968001
20
6.0000000894069672
10
155.00000230967999
20
9.0000001341104703
10
150.00000223517421
20
9.0000001341104507
10
150.00000223517418
20
14.000000208616257
10
147.00000219792128
20
14.000000208616248
10
147.00000219792128
20
24.000000357627876
10
150.00000223517418
20
24.000000357627869
10
150.00000223517418
20
29.000000432133675
10
155.00000230967999
20
29.000000432133675
10
155.00000230967999
20
32.000000476837158
10
150.00000223517418
20
32.000000476837158
10
150.00000223517418
20
37.000000551342964
10
147.0000021904707
20
37.000000551342964
10
147.0000021904707
20
47.000000700354576
10
150.00000223517418
20
47.000000700354576
10
150.00000223517418
20
52.000000774860382
10
155.00000230967999
20
52.000000774860382
10
155.00000230967999
20
55.000000819563866
10
150.00000223517418
20
55.000000819563866
10
150.00000223517418
20
60.000000894069672
10
147.0000021904707
20
60.000000894069672
10
147.0000021904707
20
70.000001043081284
0
LWPOLYLINE
5
101
100
AcDbEntity
8
0
100
AcDbPolyline
90
48
70
1
43
0.0
10
170.00000223517418
20
37.000000551342964
10
167.0000021904707
20
37.000000551342964
10
167.0000021904707
20
47.000000700354576
10
170.00000223517418
20
47.000000700354576
10
170.00000223517418
20
60.000000894069672
10
167.0000021904707
20
60.000000894069672
10
167.0000021904707
20
70.000001043081284
10
170.00000223517418
20
70.000001043081284
10
170.00000223517418
20
75.000001162290573
10
172.50000257045031
20
75.000001162290573
10
172.50000257045031
20
78.000001206994057
10
177.50000264495611
20
78.000001206994057
10
177.50000264495611
20
75.000001162290573
10
180.00000242305771
20
75.000001162290573
10
180.00000268220901
20
55.000000819563901
10
175.00000230967999
20
55.000000819563866
10
175.00000230967999
20
52.000000774860382
10
180.00000268220901
20
52.000000774860382
10
180.00000268220901
20
32.000000476837187
10
175.00000230967999
20
32.000000476837158
10
175.00000230967999
20
29.000000432133675
10
180.00000268220901
20
29.000000432133707
10
180.00000268220901
20
9.0000001341104703
10
175.00000230967999
20
9.0000001341104703
10
175.00000230967999
20
6.0000000894069672
10
180.00000238418551
20
6.0000000894069982
10
180.00000268220901
20
-14.000000208616207
10
175.00000230967999
20
-14.000000208616239
10
175.00000230967999
20
-17.00000025331974
10
180.00000238418565
20
-17.000000253319708
10
180.00000238418576
20
-37.000000596046391
10
177.50000264495608
20
-37.000000596046434
10
177.50000264495611
20
-40.000000640749874
10
172.50000257045033
20
-40.000000640749931
10
172.50000257045031
20
-37.000000596046419
10
170.00000223517429
20
-37.000000596046448
10
170.00000223517424
20
-32.000000476837144
10
167.00000219047075
20
-32.000000476837158
10
167.00000219047072
20
-22.00000032782556
10
170.00000223517424
20
-22.000000327825546
10
170.00000223517421
20
-9.0000001341104401
10
167.00000219047072
20
-9.0000001341104507
10
167.0000021904707
20
1.0000000149011528
10
170.00000223517421
20
1.0000000149011612
10
170.00000223517418
20
14.000000208616257
10
167.00000219792128
20
14.000000208616248
10
167.00000219792128
20
24.000000357627876
10
170.00000223517418
20
24.000000357627869
0
ENDSEC
0
SECTION
2
OBJECTS
0
DICTIONARY
5
C
100
AcDbDictionary
3
ACAD_GROUP
350
D
3
ACAD_MLINESTYLE
350
17
0
DICTIONARY
5
D
100
AcDbDictionary
0
DICTIONARY
5
1A
330
C
100
AcDbDictionary
0
DICTIONARY
5
17
100
AcDbDictionary
0
ENDSEC
0
EOF
