0
SECTION
2
HEADER
9
$INSUNITS
70
4
9
$ACADVER
1
AC1014
9
$HANDSEED
5
FFFF
0
ENDSEC
0
SECTION
2
TABLES
0
TABLE
2
VPORT
5
8
100
AcDbSymbolTable
0
ENDTAB
0
TABLE
2
LTYPE
5
5
100
AcDbSymbolTable
0
LTYPE
5
14
100
AcDbSymbolTableRecord
100
AcDbLinetypeTableRecord
2
BYBLOCK
70
0
0
LTYPE
5
15
100
AcDbSymbolTableRecord
100
AcDbLinetypeTableRecord
2
BYLAYER
70
0
0
ENDTAB
0
TABLE
2
LAYER
5
2
100
AcDbSymbolTable
70
2
0
LAYER
5
50
100
AcDbSymbolTableRecord
100
AcDbLayerTableRecord
2
0
70
0
6
CONTINUOUS
0
ENDTAB
0
TABLE
2
STYLE
5
3
100
AcDbSymbolTable
70
1
0
STYLE
5
11
100
AcDbSymbolTableRecord
100
AcDbTextStyleTableRecord
2
STANDARD
70
0
0
ENDTAB
0
TABLE
2
VIEW
5
6
100
AcDbSymbolTable
70
0
0
ENDTAB
0
TABLE
2
UCS
5
7
100
AcDbSymbolTable
70
0
0
ENDTAB
0
TABLE
2
APPID
5
9
100
AcDbSymbolTable
70
2
0
APPID
5
12
100
AcDbSymbolTableRecord
100
AcDbRegAppTableRecord
2
ACAD
70
0
0
ENDTAB
0
TABLE
2
DIMSTYLE
5
A
100
AcDbSymbolTable
70
1
0
ENDTAB
0
TABLE
2
BLOCK_RECORD
5
1
100
AcDbSymbolTable
70
1
0
BLOCK_RECORD
5
1F
100
AcDbSymbolTableRecord
100
AcDbBlockTableRecord
2
*MODEL_SPACE
0
BLOCK_RECORD
5
1B
100
AcDbSymbolTableRecord
100
AcDbBlockTableRecord
2
*PAPER_SPACE
0
ENDTAB
0
ENDSEC
0
SECTION
2
BLOCKS
0
BLOCK
5
20
100
AcDbEntity
100
AcDbBlockBegin
2
*MODEL_SPACE
0
ENDBLK
5
21
100
AcDbEntity
100
AcDbBlockEnd
0
BLOCK
5
1C
100
AcDbEntity
100
AcDbBlockBegin
2
*PAPER_SPACE
0
ENDBLK
5
1D
100
AcDbEntity
100
AcDbBlockEnd
0
ENDSEC
0
SECTION
2
ENTITIES
0
LWPOLYLINE
5
100
100
AcDbEntity
8
0
100
AcDbPolyline
90
4
70
1
43
0.0
10
114.00000169873238
20
70.000001043081284
10
117.00000000000001
20
70.000001043081284
10
117.00000000000001
20
60.000000894069672
10
114.00000169873238
20
60.000000894069672
0
LWPOLYLINE
5
101
100
AcDbEntity
8
0
100
AcDbPolyline
90
4
70
1
43
0.0
10
91.000001698732376
20
60.000000894069672
10
94
20
60.000000894069672
10
94
20
70.000001043081284
10
91.000001698732376
20
70.000001043081284
0
LWPOLYLINE
5
102
100
AcDbEntity
8
0
100
AcDbPolyline
90
4
70
1
43
0.0
10
68.000001698732376
20
60.000000894069672
10
71
20
60.000000894069672
10
71
20
70.000001043081284
10
68.000001698732376
20
70.000001043081284
0
LWPOLYLINE
5
103
100
AcDbEntity
8
0
100
AcDbPolyline
90
4
70
1
43
0.0
10
45.000001698732376
20
60.000000894069672
10
48.000000000000007
20
60.000000894069672
10
48.000000000000007
20
70.000001043081284
10
45.000001698732376
20
70.000001043081284
0
LWPOLYLINE
5
104
100
AcDbEntity
8
0
100
AcDbPolyline
90
4
70
1
43
0.0
10
114.00000169873238
20
37.000000894069672
10
117.00000000000001
20
37.000000894069672
10
117.00000000000001
20
47.000001043081276
10
114.00000169873238
20
47.000001043081276
0
LWPOLYLINE
5
105
100
AcDbEntity
8
0
100
AcDbPolyline
90
4
70
1
43
0.0
10
91.000001698732376
20
47.000001043081276
10
94
20
47.000001043081276
10
94
20
37.000000894069672
10
91.000001698732376
20
37.000000894069672
0
LWPOLYLINE
5
106
100
AcDbEntity
8
0
100
AcDbPolyline
90
4
70
1
43
0.0
10
68.000001698732376
20
37.000000894069672
10
71
20
37.000000894069672
10
71
20
47.000001043081276
10
68.000001698732376
20
47.000001043081276
0
LWPOLYLINE
5
107
100
AcDbEntity
8
0
100
AcDbPolyline
90
4
70
1
43
0.0
10
45.000001698732376
20
47.000001043081276
10
48.000000000000007
20
47.000001043081276
10
48.000000000000007
20
37.000000894069672
10
45.000001698732376
20
37.000000894069672
0
LWPOLYLINE
5
108
100
AcDbEntity
8
0
100
AcDbPolyline
90
4
70
1
43
0.0
10
114.00000169873238
20
24.000001043081276
10
117.00000000000001
20
24.000001043081276
10
117.00000000000001
20
14.000000894069666
10
114.00000169873238
20
14.000000894069666
0
LWPOLYLINE
5
109
100
AcDbEntity
8
0
100
AcDbPolyline
90
4
70
1
43
0.0
10
91.000001698732376
20
14.000000894069666
10
94
20
14.000000894069666
10
94
20
24.000001043081276
10
91.000001698732376
20
24.000001043081276
0
LWPOLYLINE
5
110
100
AcDbEntity
8
0
100
AcDbPolyline
90
4
70
1
43
0.0
10
68.000001698732376
20
24.000001043081276
10
71
20
24.000001043081276
10
71
20
14.000000894069666
10
68.000001698732376
20
14.000000894069666
0
LWPOLYLINE
5
111
100
AcDbEntity
8
0
100
AcDbPolyline
90
4
70
1
43
0.0
10
45.000001698732376
20
14.000000894069666
10
48.000000000000007
20
14.000000894069666
10
48.000000000000007
20
24.000001043081276
10
45.000001698732376
20
24.000001043081276
0
LWPOLYLINE
5
112
100
AcDbEntity
8
0
100
AcDbPolyline
90
4
70
1
43
0.0
10
114.00000169873238
20
1.00000104308128
10
117.00000000000001
20
1.00000104308128
10
117.00000000000001
20
-8.9999991059303319
10
114.00000169873238
20
-8.9999991059303319
0
LWPOLYLINE
5
113
100
AcDbEntity
8
0
100
AcDbPolyline
90
4
70
1
43
0.0
10
91.000001698732376
20
-8.9999991059303319
10
94
20
-8.9999991059303319
10
94
20
1.00000104308128
10
91.000001698732376
20
1.00000104308128
0
LWPOLYLINE
5
114
100
AcDbEntity
8
0
100
AcDbPolyline
90
4
70
1
43
0.0
10
68.000001698732376
20
1.00000104308128
10
71
20
1.00000104308128
10
71
20
-8.9999991059303319
10
68.000001698732376
20
-8.9999991059303319
0
LWPOLYLINE
5
115
100
AcDbEntity
8
0
100
AcDbPolyline
90
4
70
1
43
0.0
10
45.000001698732376
20
-8.9999991059303319
10
48.000000000000007
20
-8.9999991059303319
10
48.000000000000007
20
1.00000104308128
10
45.000001698732376
20
1.00000104308128
0
LWPOLYLINE
5
116
100
AcDbEntity
8
0
100
AcDbPolyline
90
4
70
1
43
0.0
10
114.00000169873238
20
-21.999998956918727
10
117.00000000000001
20
-21.999998956918727
10
117.00000000000001
20
-31.999999105930339
10
114.00000169873238
20
-31.999999105930339
0
LWPOLYLINE
5
117
100
AcDbEntity
8
0
100
AcDbPolyline
90
4
70
1
43
0.0
10
91.000001698732376
20
-31.999999105930339
10
94
20
-31.999999105930339
10
94
20
-21.999998956918727
10
91.000001698732376
20
-21.999998956918727
0
LWPOLYLINE
5
118
100
AcDbEntity
8
0
100
AcDbPolyline
90
4
70
1
43
0.0
10
68.000001698732376
20
-21.999998956918727
10
71
20
-21.999998956918727
10
71
20
-31.999999105930339
10
68.000001698732376
20
-31.999999105930339
0
LWPOLYLINE
5
119
100
AcDbEntity
8
0
100
AcDbPolyline
90
4
70
1
43
0.0
10
45.000001698732376
20
-31.999999105930339
10
48.000000000000007
20
-31.999999105930339
10
48.000000000000007
20
-21.999998956918727
10
45.000001698732376
20
-21.999998956918727
0
LINE
5
120
100
AcDbEntity
8
0
100
AcDbLine
10
132.00000196695328
20
55
30
0
11
132.00000196695328
21
52.000000774860382
31
0
0
LINE
5
121
100
AcDbEntity
8
0
100
AcDbLine
10
122.00000181794167
20
55
30
0
11
122.00000181794167
21
52.000000774860382
31
0
0
LINE
5
122
100
AcDbEntity
8
0
100
AcDbLine
10
109.00000196695328
20
55
30
0
11
109.00000196695328
21
52.000000774860382
31
0
0
LWPOLYLINE
5
123
100
AcDbEntity
8
0
100
AcDbPolyline
90
4
70
1
43
0.0
10
99.000001817941666
20
52.000000774860382
10
99.000001817941666
20
55
10
109.00000196695328
20
55
10
109.00000196695328
20
52.000000774860382
0
LWPOLYLINE
5
124
100
AcDbEntity
8
0
100
AcDbPolyline
90
4
70
1
43
0.0
10
86.000001966953263
20
52.000000774860382
10
86.000001966953263
20
55
10
76.000001817941651
20
55
10
76.000001817941651
20
52.000000774860382
0
LINE
5
125
100
AcDbEntity
8
0
100
AcDbLine
10
76.000001817941651
20
55
30
0
11
76.000001817941651
21
52.000000774860382
31
0
0
LINE
5
126
100
AcDbEntity
8
0
100
AcDbLine
10
63.000001966953278
20
55
30
0
11
63.000001966953278
21
52.000000774860382
31
0
0
LINE
5
127
100
AcDbEntity
8
0
100
AcDbLine
10
53.000001817941666
20
55
30
0
11
53.000001817941666
21
52.000000774860382
31
0
0
LINE
5
128
100
AcDbEntity
8
0
100
AcDbLine
10
40.000001966953263
20
55
30
0
11
40.000001966953263
21
52.000000774860382
31
0
0
LWPOLYLINE
5
129
100
AcDbEntity
8
0
100
AcDbPolyline
90
4
70
1
43
0.0
10
30.000001817941655
20
55
10
30.000001817941655
20
52.000000774860382
10
40.000001966953263
20
52.000000774860382
10
40.000001966953263
20
55
0
LWPOLYLINE
5
130
100
AcDbEntity
8
0
100
AcDbPolyline
90
4
70
1
43
0.0
10
76.000001817941651
20
29.000000774860379
10
76.000001817941651
20
31.999999999999996
10
86.000001966953263
20
31.999999999999996
10
86.000001966953263
20
29.000000774860379
0
LWPOLYLINE
5
131
100
AcDbEntity
8
0
100
AcDbPolyline
90
4
70
1
43
0.0
10
30.000001817941655
20
29.000000774860379
10
30.000001817941655
20
31.999999999999996
10
40.000001966953263
20
31.999999999999996
10
40.000001966953263
20
29.000000774860379
0
LWPOLYLINE
5
132
100
AcDbEntity
8
0
100
AcDbPolyline
90
4
70
1
43
0.0
10
63.000001966953278
20
29.000000774860379
10
63.000001966953278
20
31.999999999999996
10
53.000001817941666
20
31.999999999999996
10
53.000001817941666
20
29.000000774860379
0
LWPOLYLINE
5
133
100
AcDbEntity
8
0
100
AcDbPolyline
90
4
70
1
43
0.0
10
132.00000196695328
20
29.000000774860379
10
132.00000196695328
20
31.999999999999996
10
122.00000181794167
20
31.999999999999996
10
122.00000181794167
20
29.000000774860379
0
LWPOLYLINE
5
134
100
AcDbEntity
8
0
100
AcDbPolyline
90
4
70
1
43
0.0
10
99.000001817941666
20
29.000000774860379
10
99.000001817941666
20
31.999999999999996
10
109.00000196695328
20
31.999999999999996
10
109.00000196695328
20
29.000000774860379
0
LINE
5
135
100
AcDbEntity
8
0
100
AcDbLine
10
30.000001817941655
20
55
30
0
11
30.000001817941655
21
52.000000774860382
31
0
0
LWPOLYLINE
5
136
100
AcDbEntity
8
0
100
AcDbPolyline
90
4
70
1
43
0.0
10
63.000001966953278
20
52.000000774860382
10
63.000001966953278
20
55
10
53.000001817941666
20
55
10
53.000001817941666
20
52.000000774860382
0
LINE
5
137
100
AcDbEntity
8
0
100
AcDbLine
10
132.00000196695328
20
55
30
0
11
132.00000196695328
21
52.000000774860382
31
0
0
LINE
5
138
100
AcDbEntity
8
0
100
AcDbLine
10
99.000001817941666
20
55
30
0
11
99.000001817941666
21
52.000000774860382
31
0
0
LINE
5
139
100
AcDbEntity
8
0
100
AcDbLine
10
86.000001966953263
20
55
30
0
11
86.000001966953263
21
52.000000774860382
31
0
0
LINE
5
140
100
AcDbEntity
8
0
100
AcDbLine
10
122.00000181794167
20
55
30
0
11
122.00000181794167
21
52.000000774860382
31
0
0
LWPOLYLINE
5
141
100
AcDbEntity
8
0
100
AcDbPolyline
90
4
70
1
43
0.0
10
76.000001817941651
20
6.0000007748603768
10
76.000001817941651
20
8.9999999999999947
10
86.000001966953263
20
8.9999999999999947
10
86.000001966953263
20
6.0000007748603768
0
LWPOLYLINE
5
142
100
AcDbEntity
8
0
100
AcDbPolyline
90
4
70
1
43
0.0
10
30.000001817941655
20
6.0000007748603768
10
30.000001817941655
20
8.9999999999999947
10
40.000001966953263
20
8.9999999999999947
10
40.000001966953263
20
6.0000007748603768
0
LWPOLYLINE
5
143
100
AcDbEntity
8
0
100
AcDbPolyline
90
4
70
1
43
0.0
10
63.000001966953278
20
6.0000007748603768
10
63.000001966953278
20
8.9999999999999947
10
53.000001817941666
20
8.9999999999999947
10
53.000001817941666
20
6.0000007748603768
0
LWPOLYLINE
5
144
100
AcDbEntity
8
0
100
AcDbPolyline
90
4
70
1
43
0.0
10
132.00000196695328
20
6.0000007748603768
10
132.00000196695328
20
8.9999999999999947
10
122.00000181794167
20
8.9999999999999947
10
122.00000181794167
20
6.0000007748603768
0
LWPOLYLINE
5
145
100
AcDbEntity
8
0
100
AcDbPolyline
90
4
70
1
43
0.0
10
99.000001817941666
20
6.0000007748603768
10
99.000001817941666
20
8.9999999999999947
10
109.00000196695328
20
8.9999999999999947
10
109.00000196695328
20
6.0000007748603768
0
LINE
5
146
100
AcDbEntity
8
0
100
AcDbLine
10
76.000001817941651
20
-14.000000000000004
30
0
11
76.000001817941651
21
-16.999999225139621
31
0
0
LWPOLYLINE
5
147
100
AcDbEntity
8
0
100
AcDbPolyline
90
4
70
1
43
0.0
10
30.000001817941655
20
-16.999999225139621
10
30.000001817941655
20
-14.000000000000004
10
40.000001966953263
20
-14.000000000000004
10
40.000001966953263
20
-16.999999225139621
0
LWPOLYLINE
5
148
100
AcDbEntity
8
0
100
AcDbPolyline
90
4
70
1
43
0.0
10
63.000001966953278
20
-16.999999225139621
10
63.000001966953278
20
-14.000000000000004
10
53.000001817941666
20
-14.000000000000004
10
53.000001817941666
20
-16.999999225139621
0
LWPOLYLINE
5
149
100
AcDbEntity
8
0
100
AcDbPolyline
90
4
70
1
43
0.0
10
132.00000196695328
20
-16.999999225139621
10
132.00000196695328
20
-14.000000000000004
10
122.00000181794167
20
-14.000000000000004
10
122.00000181794167
20
-16.999999225139621
0
LWPOLYLINE
5
150
100
AcDbEntity
8
0
100
AcDbPolyline
90
4
70
1
43
0.0
10
99.000001817941666
20
-16.999999225139621
10
99.000001817941666
20
-14.000000000000004
10
109.00000196695328
20
-14.000000000000004
10
109.00000196695328
20
-16.999999225139621
0
LINE
5
151
100
AcDbEntity
8
0
100
AcDbLine
10
86.000001966953263
20
-14.000000000000004
30
0
11
86.000001966953263
21
-16.999999225139621
31
0
0
LINE
5
152
100
AcDbEntity
8
0
100
AcDbLine
10
63.000001966953278
20
78
30
0
11
63.000001966953278
21
75.000000774860382
31
0
0
LINE
5
153
100
AcDbEntity
8
0
100
AcDbLine
10
53.000001817941666
20
78
30
0
11
53.000001817941666
21
75.000000774860382
31
0
0
LINE
5
154
100
AcDbEntity
8
0
100
AcDbLine
10
40.000001966953263
20
78
30
0
11
40.000001966953263
21
75.000000774860382
31
0
0
LINE
5
155
100
AcDbEntity
8
0
100
AcDbLine
10
30.000001817941655
20
78
30
0
11
30.000001817941655
21
75.000000774860382
31
0
0
LINE
5
156
100
AcDbEntity
8
0
100
AcDbLine
10
76.000001817941651
20
78
30
0
11
76.000001817941651
21
75.000000774860382
31
0
0
LINE
5
157
100
AcDbEntity
8
0
100
AcDbLine
10
40.000001966953263
20
78
30
0
11
40.000001966953263
21
75.000000774860382
31
0
0
LINE
5
158
100
AcDbEntity
8
0
100
AcDbLine
10
122.00000181794167
20
78
30
0
11
122.00000181794167
21
75.000000774860382
31
0
0
LINE
5
159
100
AcDbEntity
8
0
100
AcDbLine
10
86.000001966953263
20
78
30
0
11
86.000001966953263
21
75.000000774860382
31
0
0
LINE
5
160
100
AcDbEntity
8
0
100
AcDbLine
10
132.00000196695328
20
78
30
0
11
132.00000196695328
21
75.000000774860382
31
0
0
LINE
5
161
100
AcDbEntity
8
0
100
AcDbLine
10
30.000001817941655
20
78
30
0
11
30.000001817941655
21
75.000000774860382
31
0
0
LINE
5
162
100
AcDbEntity
8
0
100
AcDbLine
10
53.000001817941666
20
78
30
0
11
53.000001817941666
21
75.000000774860382
31
0
0
LINE
5
163
100
AcDbEntity
8
0
100
AcDbLine
10
132.00000196695328
20
78
30
0
11
132.00000196695328
21
75.000000774860382
31
0
0
LINE
5
164
100
AcDbEntity
8
0
100
AcDbLine
10
122.00000181794167
20
78
30
0
11
122.00000181794167
21
75.000000774860382
31
0
0
LINE
5
165
100
AcDbEntity
8
0
100
AcDbLine
10
76.000001817941651
20
78
30
0
11
76.000001817941651
21
75.000000774860382
31
0
0
LINE
5
166
100
AcDbEntity
8
0
100
AcDbLine
10
63.000001966953278
20
78
30
0
11
63.000001966953278
21
75.000000774860382
31
0
0
LINE
5
167
100
AcDbEntity
8
0
100
AcDbLine
10
109.00000196695328
20
78
30
0
11
109.00000196695328
21
75.000000774860382
31
0
0
LINE
5
168
100
AcDbEntity
8
0
100
AcDbLine
10
109.00000196695328
20
78
30
0
11
109.00000196695328
21
75.000000774860382
31
0
0
LINE
5
169
100
AcDbEntity
8
0
100
AcDbLine
10
86.000001966953263
20
78
30
0
11
86.000001966953263
21
75.000000774860382
31
0
0
LINE
5
170
100
AcDbEntity
8
0
100
AcDbLine
10
99.000001817941666
20
78
30
0
11
99.000001817941666
21
75.000000774860382
31
0
0
LINE
5
171
100
AcDbEntity
8
0
100
AcDbLine
10
99.000001817941666
20
78
30
0
11
99.000001817941666
21
75.000000774860382
31
0
0
LINE
5
172
100
AcDbEntity
8
0
100
AcDbLine
10
63.000001966953278
20
-37.000000000000014
30
0
11
63.000001966953278
21
-39.999999225139632
31
0
0
LINE
5
173
100
AcDbEntity
8
0
100
AcDbLine
10
53.000001817941666
20
-37.000000000000014
30
0
11
53.000001817941666
21
-39.999999225139632
31
0
0
LINE
5
174
100
AcDbEntity
8
0
100
AcDbLine
10
40.000001966953263
20
-37.000000000000014
30
0
11
40.000001966953263
21
-39.999999225139632
31
0
0
LINE
5
175
100
AcDbEntity
8
0
100
AcDbLine
10
30.000001817941655
20
-37.000000000000014
30
0
11
30.000001817941655
21
-39.999999225139632
31
0
0
LINE
5
176
100
AcDbEntity
8
0
100
AcDbLine
10
76.000001817941651
20
-37.000000000000014
30
0
11
76.000001817941651
21
-39.999999225139632
31
0
0
LINE
5
177
100
AcDbEntity
8
0
100
AcDbLine
10
40.000001966953263
20
-37.000000000000014
30
0
11
40.000001966953263
21
-39.999999225139632
31
0
0
LINE
5
178
100
AcDbEntity
8
0
100
AcDbLine
10
122.00000181794167
20
-37.000000000000014
30
0
11
122.00000181794167
21
-39.999999225139632
31
0
0
LINE
5
179
100
AcDbEntity
8
0
100
AcDbLine
10
86.000001966953263
20
-37.000000000000014
30
0
11
86.000001966953263
21
-39.999999225139632
31
0
0
LINE
5
180
100
AcDbEntity
8
0
100
AcDbLine
10
132.00000196695328
20
-37.000000000000014
30
0
11
132.00000196695328
21
-39.999999225139632
31
0
0
LINE
5
181
100
AcDbEntity
8
0
100
AcDbLine
10
30.000001817941655
20
-37.000000000000014
30
0
11
30.000001817941655
21
-39.999999225139632
31
0
0
LINE
5
182
100
AcDbEntity
8
0
100
AcDbLine
10
53.000001817941666
20
-37.000000000000014
30
0
11
53.000001817941666
21
-39.999999225139632
31
0
0
LINE
5
183
100
AcDbEntity
8
0
100
AcDbLine
10
132.00000196695328
20
-37.000000000000014
30
0
11
132.00000196695328
21
-39.999999225139632
31
0
0
LINE
5
184
100
AcDbEntity
8
0
100
AcDbLine
10
122.00000181794167
20
-37.000000000000014
30
0
11
122.00000181794167
21
-39.999999225139632
31
0
0
LINE
5
185
100
AcDbEntity
8
0
100
AcDbLine
10
76.000001817941651
20
-37.000000000000014
30
0
11
76.000001817941651
21
-39.999999225139632
31
0
0
LINE
5
186
100
AcDbEntity
8
0
100
AcDbLine
10
63.000001966953278
20
-37.000000000000014
30
0
11
63.000001966953278
21
-39.999999225139632
31
0
0
LINE
5
187
100
AcDbEntity
8
0
100
AcDbLine
10
109.00000196695328
20
-37.000000000000014
30
0
11
109.00000196695328
21
-39.999999225139632
31
0
0
LINE
5
188
100
AcDbEntity
8
0
100
AcDbLine
10
109.00000196695328
20
-37.000000000000014
30
0
11
109.00000196695328
21
-39.999999225139632
31
0
0
LINE
5
189
100
AcDbEntity
8
0
100
AcDbLine
10
86.000001966953263
20
-37.000000000000014
30
0
11
86.000001966953263
21
-39.999999225139632
31
0
0
LINE
5
190
100
AcDbEntity
8
0
100
AcDbLine
10
99.000001817941666
20
-37.000000000000014
30
0
11
99.000001817941666
21
-39.999999225139632
31
0
0
LINE
5
191
100
AcDbEntity
8
0
100
AcDbLine
10
99.000001817941666
20
-37.000000000000014
30
0
11
99.000001817941666
21
-39.999999225139632
31
0
0
LINE
5
192
100
AcDbEntity
8
0
100
AcDbLine
10
140.00000000000003
20
47.000001043081276
30
0
11
137.00000169873238
21
47.000001043081276
31
0
0
LINE
5
193
100
AcDbEntity
8
0
100
AcDbLine
10
140.00000000000003
20
14.000000894069666
30
0
11
137.00000169873238
21
14.000000894069666
31
0
0
LINE
5
194
100
AcDbEntity
8
0
100
AcDbLine
10
140.00000000000003
20
24.000001043081276
30
0
11
137.00000169873238
21
24.000001043081276
31
0
0
LINE
5
195
100
AcDbEntity
8
0
100
AcDbLine
10
140.00000000000003
20
1.00000104308128
30
0
11
137.00000169873238
21
1.00000104308128
31
0
0
LINE
5
196
100
AcDbEntity
8
0
100
AcDbLine
10
140.00000000000003
20
-31.999999105930339
30
0
11
137.00000169873238
21
-31.999999105930339
31
0
0
LINE
5
197
100
AcDbEntity
8
0
100
AcDbLine
10
140.00000000000003
20
-21.999998956918727
30
0
11
137.00000169873238
21
-21.999998956918727
31
0
0
LINE
5
198
100
AcDbEntity
8
0
100
AcDbLine
10
140.00000000000003
20
-8.9999991059303319
30
0
11
137.00000169873238
21
-8.9999991059303319
31
0
0
LINE
5
199
100
AcDbEntity
8
0
100
AcDbLine
10
140.00000000000003
20
37.000000894069672
30
0
11
137.00000169873238
21
37.000000894069672
31
0
0
LINE
5
200
100
AcDbEntity
8
0
100
AcDbLine
10
140.00000000000003
20
60.000000894069672
30
0
11
137.00000169873238
21
60.000000894069672
31
0
0
LINE
5
201
100
AcDbEntity
8
0
100
AcDbLine
10
140.00000000000003
20
70.000001043081284
30
0
11
137.00000169873238
21
70.000001043081284
31
0
0
LINE
5
202
100
AcDbEntity
8
0
100
AcDbLine
10
25
20
47.000001043081276
30
0
11
22.000001698732365
21
47.000001043081276
31
0
0
LINE
5
203
100
AcDbEntity
8
0
100
AcDbLine
10
25
20
14.000000894069666
30
0
11
22.000001698732365
21
14.000000894069666
31
0
0
LINE
5
204
100
AcDbEntity
8
0
100
AcDbLine
10
25
20
24.000001043081276
30
0
11
22.000001698732365
21
24.000001043081276
31
0
0
LINE
5
205
100
AcDbEntity
8
0
100
AcDbLine
10
25
20
1.00000104308128
30
0
11
22.000001698732365
21
1.00000104308128
31
0
0
LINE
5
206
100
AcDbEntity
8
0
100
AcDbLine
10
25
20
-31.999999105930339
30
0
11
22.000001698732365
21
-31.999999105930339
31
0
0
LINE
5
207
100
AcDbEntity
8
0
100
AcDbLine
10
25
20
-21.999998956918727
30
0
11
22.000001698732365
21
-21.999998956918727
31
0
0
LINE
5
208
100
AcDbEntity
8
0
100
AcDbLine
10
25
20
-8.9999991059303319
30
0
11
22.000001698732365
21
-8.9999991059303319
31
0
0
LINE
5
209
100
AcDbEntity
8
0
100
AcDbLine
10
25
20
37.000000894069672
30
0
11
22.000001698732365
21
37.000000894069672
31
0
0
LINE
5
210
100
AcDbEntity
8
0
100
AcDbLine
10
25
20
60.000000894069672
30
0
11
22.000001698732365
21
60.000000894069672
31
0
0
LINE
5
211
100
AcDbEntity
8
0
100
AcDbLine
10
25
20
70.000001043081284
30
0
11
22.000001698732365
21
70.000001043081284
31
0
0
LINE
5
212
100
AcDbEntity
8
0
100
AcDbLine
10
22.000001698732365
20
70.000001043081284
30
0
11
22.000001698732365
21
78.000001162290573
31
0
0
LINE
5
213
100
AcDbEntity
8
0
100
AcDbLine
10
22.000001698732365
20
78.000001162290573
30
0
11
30.000001817941655
21
78
31
0
0
LINE
5
214
100
AcDbEntity
8
0
100
AcDbLine
10
40.000001966953263
20
78
30
0
11
53.000001817941666
21
78
31
0
0
LINE
5
215
100
AcDbEntity
8
0
100
AcDbLine
10
63.000001966953278
20
78
30
0
11
76.000001817941651
21
78
31
0
0
LINE
5
216
100
AcDbEntity
8
0
100
AcDbLine
10
86.000001966953263
20
78
30
0
11
99.000001817941666
21
78
31
0
0
LINE
5
217
100
AcDbEntity
8
0
100
AcDbLine
10
109.00000196695328
20
78
30
0
11
122.00000181794167
21
78
31
0
0
LINE
5
218
100
AcDbEntity
8
0
100
AcDbLine
10
132.00000196695328
20
78
30
0
11
140.00000000000003
21
78
31
0
0
LINE
5
219
100
AcDbEntity
8
0
100
AcDbLine
10
140.00000000000003
20
78
30
0
11
140.00000000000003
21
70.000001043081284
31
0
0
LINE
5
220
100
AcDbEntity
8
0
100
AcDbLine
10
140.00000000000003
20
60.000000894069672
30
0
11
140.00000000000003
21
47.000001043081276
31
0
0
LINE
5
221
100
AcDbEntity
8
0
100
AcDbLine
10
140.00000000000003
20
37.000000894069672
30
0
11
140.00000000000003
21
24.000001043081276
31
0
0
LINE
5
222
100
AcDbEntity
8
0
100
AcDbLine
10
140.00000000000003
20
14.000000894069666
30
0
11
140.00000000000003
21
1.00000104308128
31
0
0
LINE
5
223
100
AcDbEntity
8
0
100
AcDbLine
10
140.00000000000003
20
-8.9999991059303319
30
0
11
140.00000000000003
21
-21.999998956918727
31
0
0
LINE
5
224
100
AcDbEntity
8
0
100
AcDbLine
10
140.00000000000003
20
-31.999999105930339
30
0
11
140.00000000000003
21
-40.000000596046448
31
0
0
LINE
5
225
100
AcDbEntity
8
0
100
AcDbLine
10
140.00000000000003
20
-40.000000596046448
30
0
11
132.00000196695328
21
-39.999999225139632
31
0
0
LINE
5
226
100
AcDbEntity
8
0
100
AcDbLine
10
122.00000181794167
20
-39.999999225139632
30
0
11
109.00000196695328
21
-39.999999225139632
31
0
0
LINE
5
227
100
AcDbEntity
8
0
100
AcDbLine
10
99.000001817941666
20
-39.999999225139632
30
0
11
86.000001281499863
21
-39.999999225139632
31
0
0
LINE
5
228
100
AcDbEntity
8
0
100
AcDbLine
10
76.000001817941651
20
-39.999999225139632
30
0
11
63.000001966953278
21
-39.999999225139632
31
0
0
LINE
5
229
100
AcDbEntity
8
0
100
AcDbLine
10
53.000001817941666
20
-39.999999225139632
30
0
11
40.000001966953263
21
-39.999999225139632
31
0
0
LINE
5
230
100
AcDbEntity
8
0
100
AcDbLine
10
30.000001817941655
20
-39.999999225139632
30
0
11
22.000000327825546
21
-39.999999225139632
31
0
0
LINE
5
231
100
AcDbEntity
8
0
100
AcDbLine
10
22.000000327825546
20
-39.999999225139632
30
0
11
22.000001698732365
21
-31.999999105930339
31
0
0
LINE
5
232
100
AcDbEntity
8
0
100
AcDbLine
10
22.000001698732365
20
-21.999998956918727
30
0
11
22.000001698732365
21
-8.9999991059303319
31
0
0
LINE
5
233
100
AcDbEntity
8
0
100
AcDbLine
10
22.000001698732365
20
1.00000104308128
30
0
11
22.000001698732365
21
14.000000894069666
31
0
0
LINE
5
234
100
AcDbEntity
8
0
100
AcDbLine
10
22.000001698732365
20
24.000001043081276
30
0
11
22.000001698732365
21
37.000000894069672
31
0
0
LINE
5
235
100
AcDbEntity
8
0
100
AcDbLine
10
22.000001698732365
20
47.000001043081276
30
0
11
22.000001698732365
21
60.000000894069672
31
0
0
LINE
5
236
100
AcDbEntity
8
0
100
AcDbLine
10
99.000001817941666
20
75.000000774860382
30
0
11
109.00000196695328
21
75.000000774860382
31
0
0
LINE
5
237
100
AcDbEntity
8
0
100
AcDbLine
10
76.000001817941651
20
75.000000774860382
30
0
11
86.000001966953263
21
75.000000774860382
31
0
0
LINE
5
238
100
AcDbEntity
8
0
100
AcDbLine
10
30.000001817941655
20
75.000000774860382
30
0
11
40.000001966953263
21
75.000000774860382
31
0
0
LINE
5
239
100
AcDbEntity
8
0
100
AcDbLine
10
53.000001817941666
20
75.000000774860382
30
0
11
63.000001966953278
21
75.000000774860382
31
0
0
LINE
5
240
100
AcDbEntity
8
0
100
AcDbLine
10
25
20
70.000001043081284
30
0
11
25
21
60.000000894069672
31
0
0
LINE
5
241
100
AcDbEntity
8
0
100
AcDbLine
10
122.00000181794167
20
55
30
0
11
132.00000196695328
21
55
31
0
0
LINE
5
242
100
AcDbEntity
8
0
100
AcDbLine
10
137.00000169873238
20
60.000000894069672
30
0
11
137.00000169873238
21
70.000001043081284
31
0
0
LINE
5
243
100
AcDbEntity
8
0
100
AcDbLine
10
132.00000196695328
20
75.000000774860382
30
0
11
122.00000181794167
21
75.000000774860382
31
0
0
LINE
5
244
100
AcDbEntity
8
0
100
AcDbLine
10
25
20
47.000001043081276
30
0
11
25
21
37.000000894069672
31
0
0
LINE
5
245
100
AcDbEntity
8
0
100
AcDbLine
10
122.00000181794167
20
52.000000774860382
30
0
11
132.00000196695328
21
52.000000774860382
31
0
0
LINE
5
246
100
AcDbEntity
8
0
100
AcDbLine
10
137.00000169873238
20
47.000001043081276
30
0
11
137.00000169873238
21
37.000000894069672
31
0
0
LINE
5
247
100
AcDbEntity
8
0
100
AcDbLine
10
137.00000169873238
20
24.000001043081276
30
0
11
137.00000169873238
21
14.000000894069666
31
0
0
LINE
5
248
100
AcDbEntity
8
0
100
AcDbLine
10
25
20
14.000000894069666
30
0
11
25
21
24.000001043081276
31
0
0
LINE
5
249
100
AcDbEntity
8
0
100
AcDbLine
10
137.00000169873238
20
-8.9999991059303319
30
0
11
137.00000169873238
21
1.00000104308128
31
0
0
LINE
5
250
100
AcDbEntity
8
0
100
AcDbLine
10
86.000001966953263
20
-14.000000000000004
30
0
11
76.000001817941651
21
-14.000000000000004
31
0
0
LINE
5
251
100
AcDbEntity
8
0
100
AcDbLine
10
25
20
1.00000104308128
30
0
11
25
21
-8.9999991059303319
31
0
0
LINE
5
252
100
AcDbEntity
8
0
100
AcDbLine
10
25
20
-21.999998956918727
30
0
11
25
21
-31.999999105930339
31
0
0
LINE
5
253
100
AcDbEntity
8
0
100
AcDbLine
10
30.000001817941655
20
-37.000000000000014
30
0
11
40.000001966953263
21
-37.000000000000014
31
0
0
LINE
5
254
100
AcDbEntity
8
0
100
AcDbLine
10
53.000001817941666
20
-37.000000000000014
30
0
11
63.000001966953278
21
-37.000000000000014
31
0
0
LINE
5
255
100
AcDbEntity
8
0
100
AcDbLine
10
76.000001132488251
20
-17.00000025331974
30
0
11
86.000001966953263
21
-16.999999225139621
31
0
0
LINE
5
256
100
AcDbEntity
8
0
100
AcDbLine
10
76.000001817941651
20
-37.000000000000014
30
0
11
86.000001966953263
21
-37.000000000000014
31
0
0
LINE
5
257
100
AcDbEntity
8
0
100
AcDbLine
10
99.000001817941666
20
-37.000000000000014
30
0
11
109.00000196695328
21
-37.000000000000014
31
0
0
LINE
5
258
100
AcDbEntity
8
0
100
AcDbLine
10
122.00000181794167
20
-37.000000000000014
30
0
11
132.00000196695328
21
-37.000000000000014
31
0
0
LINE
5
259
100
AcDbEntity
8
0
100
AcDbLine
10
137.00000169873238
20
-31.999999105930339
30
0
11
137.00000169873238
21
-21.999998956918727
31
0
0
ENDSEC
0
SECTION
2
OBJECTS
0
DICTIONARY
5
C
100
AcDbDictionary
3
ACAD_GROUP
350
D
3
ACAD_MLINESTYLE
350
17
0
DICTIONARY
5
D
100
AcDbDictionary
0
DICTIONARY
5
1A
330
C
100
AcDbDictionary
0
DICTIONARY
5
17
100
AcDbDictionary
0
ENDSEC
0
EOF
