0
SECTION
2
HEADER
9
$INSUNITS
70
4
9
$ACADVER
1
AC1014
9
$HANDSEED
5
FFFF
0
ENDSEC
0
SECTION
2
TABLES
0
TABLE
2
VPORT
5
8
100
AcDbSymbolTable
0
ENDTAB
0
TABLE
2
LTYPE
5
5
100
AcDbSymbolTable
0
LTYPE
5
14
100
AcDbSymbolTableRecord
100
AcDbLinetypeTableRecord
2
BYBLOCK
70
0
0
LTYPE
5
15
100
AcDbSymbolTableRecord
100
AcDbLinetypeTableRecord
2
BYLAYER
70
0
0
ENDTAB
0
TABLE
2
LAYER
5
2
100
AcDbSymbolTable
70
2
0
LAYER
5
50
100
AcDbSymbolTableRecord
100
AcDbLayerTableRecord
2
0
70
0
6
CONTINUOUS
0
ENDTAB
0
TABLE
2
STYLE
5
3
100
AcDbSymbolTable
70
1
0
STYLE
5
11
100
AcDbSymbolTableRecord
100
AcDbTextStyleTableRecord
2
STANDARD
70
0
0
ENDTAB
0
TABLE
2
VIEW
5
6
100
AcDbSymbolTable
70
0
0
ENDTAB
0
TABLE
2
UCS
5
7
100
AcDbSymbolTable
70
0
0
ENDTAB
0
TABLE
2
APPID
5
9
100
AcDbSymbolTable
70
2
0
APPID
5
12
100
AcDbSymbolTableRecord
100
AcDbRegAppTableRecord
2
ACAD
70
0
0
ENDTAB
0
TABLE
2
DIMSTYLE
5
A
100
AcDbSymbolTable
70
1
0
ENDTAB
0
TABLE
2
BLOCK_RECORD
5
1
100
AcDbSymbolTable
70
1
0
BLOCK_RECORD
5
1F
100
AcDbSymbolTableRecord
100
AcDbBlockTableRecord
2
*MODEL_SPACE
0
BLOCK_RECORD
5
1B
100
AcDbSymbolTableRecord
100
AcDbBlockTableRecord
2
*PAPER_SPACE
0
ENDTAB
0
ENDSEC
0
SECTION
2
BLOCKS
0
BLOCK
5
20
100
AcDbEntity
100
AcDbBlockBegin
2
*MODEL_SPACE
0
ENDBLK
5
21
100
AcDbEntity
100
AcDbBlockEnd
0
BLOCK
5
1C
100
AcDbEntity
100
AcDbBlockBegin
2
*PAPER_SPACE
0
ENDBLK
5
1D
100
AcDbEntity
100
AcDbBlockEnd
0
ENDSEC
0
SECTION
2
ENTITIES
0
LWPOLYLINE
5
100
100
AcDbEntity
8
0
100
AcDbPolyline
90
36
70
1
43
0.0
10
30.000000447034836
20
3.0000000447034836
10
30.000000447034836
20
0
10
40.000000596046448
20
0
10
40.000000596046448
20
3.0000000447034836
10
53.000000789761543
20
3.0000000447034836
10
53.000000789761543
20
0
10
63.000000938773155
20
0
10
63.000000938773155
20
3.0000000447034836
10
76.000001132488251
20
3.0000000447034836
10
76.000001132488251
20
0
10
86.000001281499863
20
0
10
86.000001281499863
20
3.0000000447034836
10
99.000001475214958
20
3.0000000447034836
10
99.000001475214958
20
0
10
109.00000162422657
20
0
10
109.00000162422657
20
3.0000000447034836
10
122.00000181794167
20
3.0000000447034836
10
122.00000181794167
20
0
10
132.00000196695328
20
0
10
132.00000196695328
20
3.0000000447034836
10
137.00000204145908
20
3.0000000447034836
10
137.00000204145908
20
8.0000001192092896
10
140.00000208616257
20
8.0000001192092896
10
140.00000208616257
20
21.000000268220891
10
137.00000204145908
20
21.000000268220891
10
137.00000204145908
20
26.000000342726707
10
125.00000181794167
20
26.000000342726707
10
125.00000181794167
20
23.000000324319387
10
36.999999172985554
20
22.999999552965164
10
36.999999172985554
20
26.000000342726707
10
22.000000327825546
20
26.000000342726707
10
22.000000327825546
20
21.000000268220901
10
25.00000037252903
20
21.000000268220901
10
25.00000037252903
20
8.0000001192092896
10
22.000000327825546
20
8.0000001192092896
10
22.000000327825546
20
3.0000000447034836
0
LWPOLYLINE
5
101
100
AcDbEntity
8
0
100
AcDbPolyline
90
4
70
1
43
0.0
10
48.000000715255737
20
10.500000156462193
10
45.000000670552254
20
10.500000156462193
10
45.000000670552254
20
5.5000000819563866
10
48.000000715255737
20
5.5000000819563866
0
LWPOLYLINE
5
102
100
AcDbEntity
8
0
100
AcDbPolyline
90
4
70
1
43
0.0
10
71.000001057982445
20
10.500000156462193
10
68.000001013278961
20
10.500000156462193
10
68.000001013278961
20
5.5000000819563866
10
71.000001057982445
20
5.5000000819563866
0
LWPOLYLINE
5
103
100
AcDbEntity
8
0
100
AcDbPolyline
90
4
70
1
43
0.0
10
94.000001400709152
20
10.500000156462193
10
91.000001356005669
20
10.500000156462193
10
91.000001356005669
20
5.5000000819563866
10
94.000001400709152
20
5.5000000819563866
0
LWPOLYLINE
5
104
100
AcDbEntity
8
0
100
AcDbPolyline
90
4
70
1
43
0.0
10
117.00000174343586
20
10.500000156462193
10
114.00000169873238
20
10.500000156462193
10
114.00000169873238
20
5.5000000819563866
10
117.00000174343586
20
5.5000000819563866
0
ENDSEC
0
SECTION
2
OBJECTS
0
DICTIONARY
5
C
100
AcDbDictionary
3
ACAD_GROUP
350
D
3
ACAD_MLINESTYLE
350
17
0
DICTIONARY
5
D
100
AcDbDictionary
0
DICTIONARY
5
1A
330
C
100
AcDbDictionary
0
DICTIONARY
5
17
100
AcDbDictionary
0
ENDSEC
0
EOF
